<svg xmlns="http://www.w3.org/2000/svg" xmlns:xlink="http://www.w3.org/1999/xlink" width="19.785" height="22" viewBox="0 0 19.785 22"><defs><style>.a{fill:#003d7a;}.b{opacity:0.8;}.c{clip-path:url(#a);}</style><clipPath id="a"><path class="a" d="M17.569,22H2.215a2.143,2.143,0,0,1-1.571-.644A2.147,2.147,0,0,1,0,19.785V4.431A2.147,2.147,0,0,1,.644,2.859a2.147,2.147,0,0,1,1.571-.644H3.3V0H5.513V2.215h8.759V0h2.215V2.215h1.082a2.2,2.2,0,0,1,2.215,2.215V19.785A2.2,2.2,0,0,1,17.569,22ZM2.215,7.728V19.785H17.569V7.728Zm13.19,9.893H9.893V12.108h5.513v5.513Z"/></clipPath></defs><g class="b"><path class="a" d="M17.569,22H2.215a2.143,2.143,0,0,1-1.571-.644A2.147,2.147,0,0,1,0,19.785V4.431A2.147,2.147,0,0,1,.644,2.859a2.147,2.147,0,0,1,1.571-.644H3.3V0H5.513V2.215h8.759V0h2.215V2.215h1.082a2.2,2.2,0,0,1,2.215,2.215V19.785A2.2,2.2,0,0,1,17.569,22ZM2.215,7.728V19.785H17.569V7.728Zm13.19,9.893H9.893V12.108h5.513v5.513Z"/><g class="c"><g transform="translate(-49.463 -47.247)"><rect class="a" width="118.71" height="118.71"/></g></g></g></svg>