<svg xmlns="http://www.w3.org/2000/svg" width="100" height="58.571" viewBox="0 0 100 58.571"><defs><style>.a{fill:#778893;}</style></defs><g transform="translate(-29.323 -15.999)"><g transform="translate(29.323 15.999)"><path class="a" d="M94.642,43.127,84.227,33.183a7.014,7.014,0,0,0-4.419-1.77H68.538V19.645A3.66,3.66,0,0,0,64.876,16H20.766a3.657,3.657,0,0,0-3.659,3.646V46.816a3.614,3.614,0,0,0,.178,1.065,1.8,1.8,0,0,0-.176.757V65.822c0,2.011,1.643,2.955,3.661,2.955h8.689a7.61,7.61,0,0,0,14.78,0H68.458a7.607,7.607,0,0,0,14.774,0h9.632c2.017,0,3.659-.944,3.659-2.955v-18.3A6.676,6.676,0,0,0,94.642,43.127ZM19.383,18.956H65.568l0,14.277v.007l0,13.578H19.383ZM36.856,71.615a3.967,3.967,0,1,1,3.97-3.969A3.978,3.978,0,0,1,36.856,71.615Zm39,0a3.967,3.967,0,1,1,3.969-3.969A3.977,3.977,0,0,1,75.851,71.615Zm18.4-5.1H83.234a7.61,7.61,0,0,0-14.776,0H44.237a7.611,7.611,0,0,0-14.778,0H19.387V49.771H64.876c2.017,0,2.97-1.637,2.97-3.646V34.365H79.808a7.5,7.5,0,0,1,2.577,1.445L92.8,45.755c.367.354,1.449,1.265,1.449,1.77Z" transform="translate(3.477 -15.999)"/><path class="a" d="M25.588,19.609a1.826,1.826,0,0,0-1.83,1.822V37.719a1.83,1.83,0,0,0,3.659,0V21.431A1.826,1.826,0,0,0,25.588,19.609Z" transform="translate(9.143 -12.924)"/><path class="a" d="M31.835,19.609A1.826,1.826,0,0,0,30,21.431V37.719a1.83,1.83,0,0,0,3.659,0V21.431A1.826,1.826,0,0,0,31.835,19.609Z" transform="translate(14.464 -12.924)"/><path class="a" d="M38.082,19.609a1.824,1.824,0,0,0-1.83,1.822V37.719a1.829,1.829,0,0,0,3.657,0V21.431A1.823,1.823,0,0,0,38.082,19.609Z" transform="translate(19.786 -12.924)"/><path class="a" d="M22.155,42.9H7.822a1.822,1.822,0,1,0,0,3.645H22.155a1.822,1.822,0,1,0,0-3.645Z" transform="translate(-5.992 6.921)"/><path class="a" d="M20.612,39.138H9.633a1.822,1.822,0,1,0,0,3.645h10.98a1.822,1.822,0,1,0,0-3.645Z" transform="translate(-4.449 3.713)"/><path class="a" d="M18.437,35.371h-6.25a1.822,1.822,0,1,0,0,3.645h6.25a1.822,1.822,0,1,0,0-3.645Z" transform="translate(-2.274 0.504)"/></g></g></svg>