<svg xmlns="http://www.w3.org/2000/svg" width="80" height="80" viewBox="0 0 80 80"><defs><style>.a{fill:#778893;}</style></defs><path class="a" d="M25.137,26H13.46A1.46,1.46,0,0,0,12,27.46v8.758a1.46,1.46,0,0,0,1.46,1.46H25.137a1.46,1.46,0,0,0,1.46-1.46V27.46A1.46,1.46,0,0,0,25.137,26Zm-1.46,8.758H14.919V28.919h8.758Z" transform="translate(1.081 5.534)"/><path class="a" d="M42,53.46a1.46,1.46,0,0,0,1.46,1.46H55.137a1.46,1.46,0,0,0,0-2.919H43.46A1.46,1.46,0,0,0,42,53.46Z" transform="translate(10.323 13.404)"/><path class="a" d="M53.3,56H47.46a1.46,1.46,0,0,0,0,2.919H53.3A1.46,1.46,0,0,0,53.3,56Z" transform="translate(12.049 15.242)"/><path class="a" d="M80.667,79.333H75.333V30A1.333,1.333,0,0,0,74,28.667H62.552L73.609,17.609l4-4a1.333,1.333,0,0,0,0-1.885L68.276,2.391a1.333,1.333,0,0,0-1.885,0l-4,4-8.943,8.943H34.707a12.072,12.072,0,0,0-10.29,5.821l-4.5,7.512H10A1.333,1.333,0,0,0,8.667,30V79.333H3.333a1.333,1.333,0,1,0,0,2.667H80.667a1.333,1.333,0,0,0,0-2.667ZM67.333,5.219l7.448,7.448-2.115,2.115L65.219,7.333ZM26.7,22.527a9.392,9.392,0,0,1,8-4.527H62a1.333,1.333,0,1,0,0-2.667H57.219l6.115-6.115,7.448,7.448L58.391,29.057l-8.667,8.667a1.652,1.652,0,0,1-.363.265,1.486,1.486,0,0,1-1.751-.265,1.5,1.5,0,0,1,0-2.115l4.667-4.667a1.333,1.333,0,0,0-.943-2.276H23.021ZM45.724,39.609a4.235,4.235,0,0,0,.646.53,4.122,4.122,0,0,0,2.288.695h.008v9.947l-.391-.391a1.333,1.333,0,0,0-1.885,0l-1.721,1.721-1.711-1.719A1.336,1.336,0,0,0,42.015,50h0a1.334,1.334,0,0,0-.943.391l-1.727,1.726-1.736-1.729a1.333,1.333,0,0,0-.441-.291h-.005a1.337,1.337,0,0,0-.494-.1h0a1.351,1.351,0,0,0-.191.037,1.31,1.31,0,0,0-.31.06,1.328,1.328,0,0,0-.441.293l-.391.391V31.333H48.115l-2.391,2.391a4.165,4.165,0,0,0,0,5.885ZM72.667,79.333H11.333v-48H32.667V54a1.333,1.333,0,0,0,2.276.943l1.727-1.726,1.736,1.729a1.334,1.334,0,0,0,1.883,0l1.721-1.721,1.711,1.719a1.336,1.336,0,0,0,.944.393h0a1.333,1.333,0,0,0,.943-.391l1.724-1.724,1.724,1.724a1.317,1.317,0,0,0,.392.261,1.263,1.263,0,0,0,.132.047,1.311,1.311,0,0,0,.329.065c.031,0,.059.018.09.018s.035-.01.052-.01A1.3,1.3,0,0,0,51.333,54V39.861q.145-.119.276-.251l8.276-8.276H72.667Z" transform="translate(-2 -2)"/></svg>